<svg xmlns="http://www.w3.org/2000/svg" width="960" height="640" viewBox="0 0 960 640"><rect width="960" height="640" fill="#faf8f3"/><rect x="100" y="185" width="300" height="265" rx="20" fill="#edf5e8" stroke="#2d296e" stroke-width="3"/><rect x="560" y="185" width="300" height="265" rx="20" fill="#fff4c0" stroke="#2d296e" stroke-width="3"/><text x="250" y="233" text-anchor="middle" font-family="Arial,sans-serif" font-size="28" font-weight="700" fill="#2d296e">TAKE AWAY</text><text x="710" y="233" text-anchor="middle" font-family="Arial,sans-serif" font-size="28" font-weight="700" fill="#2d296e">ADD</text><text x="480" y="330" text-anchor="middle" font-family="Arial,sans-serif" font-size="36" font-weight="700" fill="#2d296e">DUST</text><path d="M410 365H550m-16-13 16 13-16 13" fill="none" stroke="#2d296e" stroke-width="5" stroke-linecap="round" stroke-linejoin="round"/><path d="M150 390H350" stroke="#2d296e" stroke-width="9"/><path d="M180 348l75-53 27 39-75 53Z" fill="#fddd29" stroke="#2d296e" stroke-width="3"/><path d="M255 295l45-35" stroke="#2d296e" stroke-width="13"/><ellipse cx="710" cy="375" rx="92" ry="30" fill="#dbb77b"/><circle cx="650" cy="275" r="5" fill="#2d296e"/><circle cx="688" cy="275" r="5" fill="#2d296e"/><circle cx="726" cy="275" r="5" fill="#2d296e"/><circle cx="764" cy="275" r="5" fill="#2d296e"/><circle cx="650" cy="302" r="5" fill="#2d296e"/><circle cx="688" cy="302" r="5" fill="#2d296e"/><circle cx="726" cy="302" r="5" fill="#2d296e"/><circle cx="764" cy="302" r="5" fill="#2d296e"/><circle cx="650" cy="329" r="5" fill="#2d296e"/><circle cx="688" cy="329" r="5" fill="#2d296e"/><circle cx="726" cy="329" r="5" fill="#2d296e"/><circle cx="764" cy="329" r="5" fill="#2d296e"/></svg>