<svg xmlns="http://www.w3.org/2000/svg" viewBox="0 0 160 120" fill="none"><ellipse cx="80" cy="102" rx="52" ry="7" fill="#2D296E" opacity=".09"/><circle cx="79" cy="59" r="48" fill="#FFD813" opacity=".14"/><circle cx="136" cy="25" r="4" fill="#FFD813"/><path d="M23 77v8m-4-4h8" fill="none" stroke="#FFD813" stroke-width="3" stroke-linecap="round" stroke-linejoin="round"/><path d="M48 38 105 38 105 80 48 80Z" fill="none" stroke="#2D296E" stroke-width="4" stroke-linecap="round" stroke-linejoin="round"/><path d="M48 38 105 80" fill="none" stroke="#2D296E" stroke-width="4" stroke-linecap="round" stroke-linejoin="round"/><rect x="29" y="20" width="38" height="33" rx="8" fill="#FFD813"/><rect x="87" y="20" width="38" height="33" rx="8" fill="#40AB34"/><rect x="29" y="65" width="38" height="33" rx="8" fill="#E6680C"/><rect x="87" y="65" width="38" height="33" rx="8" fill="#2D296E"/><path d="m40 36 5 5 11-12" fill="none" stroke="#2D296E" stroke-width="3" stroke-linecap="round" stroke-linejoin="round"/><text x="106" y="44" fill="#fff" font-family="Arial,sans-serif" font-weight="800" font-size="23" text-anchor="middle">?</text><text x="48" y="89" fill="#fff" font-family="Arial,sans-serif" font-weight="800" font-size="21" text-anchor="middle">A</text><text x="106" y="89" fill="#fff" font-family="Arial,sans-serif" font-weight="800" font-size="21" text-anchor="middle">B</text></svg>