<svg xmlns="http://www.w3.org/2000/svg" viewBox="0 0 160 120" fill="none"><ellipse cx="80" cy="102" rx="52" ry="7" fill="#2D296E" opacity=".09"/><circle cx="79" cy="59" r="48" fill="#40AB34" opacity=".14"/><circle cx="136" cy="25" r="4" fill="#40AB34"/><path d="M23 77v8m-4-4h8" fill="none" stroke="#40AB34" stroke-width="3" stroke-linecap="round" stroke-linejoin="round"/><circle cx="80" cy="61" r="40" fill="#2D296E"/><circle cx="80" cy="61" r="34" fill="#eef7f0"/><path d="m58 33 15-4 14 7-8 15-18 3-12-8m53 10 10 12-7 21-15 4-8-13 2-14Z" fill="#40AB34"/><path d="M46 61h68M80 27c-23 26-23 43 0 68m0-68c23 26 23 43 0 68" fill="none" stroke="#2D296E" stroke-width="2" stroke-linecap="round" stroke-linejoin="round"/></svg>