<svg xmlns="http://www.w3.org/2000/svg" viewBox="0 0 160 120" fill="none"><ellipse cx="80" cy="102" rx="52" ry="7" fill="#2D296E" opacity=".09"/><circle cx="79" cy="59" r="48" fill="#FFD813" opacity=".14"/><circle cx="136" cy="25" r="4" fill="#FFD813"/><path d="M23 77v8m-4-4h8" fill="none" stroke="#FFD813" stroke-width="3" stroke-linecap="round" stroke-linejoin="round"/><rect x="26" y="39" width="30" height="30" rx="8" fill="#2D296E"/><rect x="26" y="35" width="30" height="30" rx="8" fill="#FFD813"/><text x="41" y="57" fill="#2D296E" font-family="Arial,sans-serif" font-weight="800" font-size="18" text-anchor="middle">2</text><rect x="65" y="39" width="30" height="30" rx="8" fill="#2D296E"/><rect x="65" y="35" width="30" height="30" rx="8" fill="#40AB34"/><text x="80" y="57" fill="#2D296E" font-family="Arial,sans-serif" font-weight="800" font-size="18" text-anchor="middle">4</text><rect x="104" y="39" width="30" height="30" rx="8" fill="#2D296E"/><rect x="104" y="35" width="30" height="30" rx="8" fill="#E6680C"/><text x="119" y="57" fill="#2D296E" font-family="Arial,sans-serif" font-weight="800" font-size="18" text-anchor="middle">?</text><path d="M41 84h77m-8-8 8 8-8 8" fill="none" stroke="#2D296E" stroke-width="5" stroke-linecap="round" stroke-linejoin="round"/></svg>