<svg xmlns="http://www.w3.org/2000/svg" viewBox="0 0 160 120" fill="none"><ellipse cx="80" cy="102" rx="52" ry="7" fill="#2D296E" opacity=".09"/><circle cx="79" cy="59" r="48" fill="#FFD813" opacity=".14"/><circle cx="136" cy="25" r="4" fill="#FFD813"/><path d="M23 77v8m-4-4h8" fill="none" stroke="#FFD813" stroke-width="3" stroke-linecap="round" stroke-linejoin="round"/><rect x="61" y="81" width="38" height="11" rx="4" fill="#2D296E"/><rect x="50" y="95" width="60" height="10" rx="3" fill="#2D296E"/><path d="M52 22h56v27c0 23-56 23-56 0Z" fill="#FFD813"/><path d="M53 31H36v12c0 13 15 18 24 18m48-30h16v12c0 13-14 18-24 18" fill="none" stroke="#E6680C" stroke-width="6" stroke-linecap="round" stroke-linejoin="round"/><rect x="74" y="68" width="12" height="17" rx="2" fill="#E6680C"/><text x="80" y="52" fill="#2D296E" font-family="Arial,sans-serif" font-weight="800" font-size="24" text-anchor="middle">1</text></svg>